<?xml version="1.0" encoding="iso-8859-1"?>
<!-- Generator: Adobe Illustrator 19.0.0, SVG Export Plug-In . SVG Version: 6.00 Build 0)  -->
<svg version="1.1" id="Capa_1" xmlns="http://www.w3.org/2000/svg" xmlns:xlink="http://www.w3.org/1999/xlink" x="0px" y="0px"
	 viewBox="0 0 512.001 512.001" style="enable-background:new 0 0 512.001 512.001;" xml:space="preserve">
<g>
	<g>
		<path d="M454.701,57.301c-3.9-3.91-10.239-3.91-14.139,0c-3.91,3.9-3.91,10.239,0,14.139c3.9,3.91,10.239,3.91,14.139,0
			C458.611,67.541,458.611,61.201,454.701,57.301z"/>
	</g>
</g>
<g>
	<g>
		<path d="M343.061,248.934c-3.9-3.91-10.239-3.91-14.139,0c-3.91,3.9-3.91,10.239,0,14.139c3.9,3.91,10.239,3.91,14.139,0
			C346.971,259.173,346.971,252.834,343.061,248.934z"/>
	</g>
</g>
<g>
	<g>
		<path d="M303.065,208.938c-3.9-3.91-10.239-3.91-14.139,0c-3.91,3.9-3.91,10.239,0,14.139c3.9,3.91,10.239,3.91,14.139,0
			C306.974,219.177,306.974,212.837,303.065,208.938z"/>
	</g>
</g>
<g>
	<g>
		<path d="M303.065,288.93c-3.9-3.91-10.239-3.91-14.139,0c-3.91,3.9-3.91,10.239,0,14.139c3.9,3.91,10.239,3.91,14.139,0
			C306.974,299.169,306.974,292.83,303.065,288.93z"/>
	</g>
</g>
<g>
	<g>
		<path d="M263.068,168.941c-3.9-3.91-10.239-3.91-14.139,0c-3.91,3.9-3.91,10.239,0,14.139c3.9,3.91,10.239,3.91,14.139,0
			C266.978,179.18,266.978,172.841,263.068,168.941z"/>
	</g>
</g>
<g>
	<g>
		<path d="M263.068,248.934c-3.9-3.91-10.239-3.91-14.139,0c-3.91,3.9-3.91,10.239,0,14.139c3.9,3.91,10.239,3.91,14.139,0
			C266.978,259.173,266.978,252.834,263.068,248.934z"/>
	</g>
</g>
<g>
	<g>
		<path d="M263.068,328.927c-3.9-3.91-10.239-3.91-14.139,0c-3.91,3.9-3.91,10.239,0,14.139c3.9,3.91,10.239,3.91,14.139,0
			C266.978,339.166,266.978,332.826,263.068,328.927z"/>
	</g>
</g>
<g>
	<g>
		<path d="M223.072,208.938c-3.9-3.91-10.239-3.91-14.139,0c-3.91,3.9-3.91,10.239,0,14.139c3.9,3.91,10.239,3.91,14.139,0
			C226.982,219.177,226.982,212.837,223.072,208.938z"/>
	</g>
</g>
<g>
	<g>
		<path d="M223.072,288.93c-3.9-3.91-10.239-3.91-14.139,0c-3.91,3.9-3.91,10.239,0,14.139c3.9,3.91,10.239,3.91,14.139,0
			C226.982,299.169,226.982,292.83,223.072,288.93z"/>
	</g>
</g>
<g>
	<g>
		<path d="M183.076,248.934c-3.9-3.91-10.239-3.91-14.139,0c-3.91,3.9-3.91,10.239,0,14.139c3.9,3.91,10.239,3.91,14.139,0
			C186.985,259.173,186.985,252.834,183.076,248.934z"/>
	</g>
</g>
<g>
	<g>
		<path d="M411.548,256.001l68.213-68.213c42.984-42.984,42.99-112.559,0-155.548c-42.98-42.98-112.561-42.988-155.549,0
			l-68.213,68.213l-68.213-68.213c-42.987-42.985-112.557-42.99-155.549,0c-42.981,42.983-42.986,112.561,0,155.549l68.213,68.213
			l-68.213,68.213c-42.98,42.983-42.985,112.562,0.001,155.548c42.98,42.98,112.561,42.988,155.549,0l68.212-68.213l68.213,68.213
			c42.982,42.981,112.561,42.987,155.549,0c42.981-42.983,42.986-112.561,0-155.549L411.548,256.001z M338.353,46.383
			c35.087-35.088,92.178-35.089,127.265,0c35.17,35.169,35.174,92.093,0,127.265l-68.213,68.213L270.141,114.596L338.353,46.383z
			 M46.379,173.649c-35.088-35.087-35.088-92.179,0-127.266c35.169-35.169,92.092-35.174,127.265,0l68.213,68.213L114.592,241.862
			L46.379,173.649z M173.645,465.622c-35.087,35.088-92.18,35.088-127.265,0c-35.088-35.087-35.088-92.179,0-127.265l68.213-68.213
			l127.265,127.265L173.645,465.622z M128.734,256.003L256,128.737l127.265,127.265L255.999,383.269L128.734,256.003z
			 M465.619,465.622c-35.087,35.088-92.18,35.088-127.265,0l-68.213-68.213l127.266-127.265l68.212,68.212
			C500.707,373.443,500.707,430.535,465.619,465.622z"/>
	</g>
</g>
<g>
	<g>
		<path d="M471.32,100.614c-0.736-5.473-5.766-9.311-11.243-8.577c-5.474,0.736-9.312,5.769-8.577,11.243
			c2.104,15.641-3.058,30.983-14.159,42.092l-47.006,47.006c-3.905,3.905-3.905,10.236,0,14.142
			c3.905,3.903,10.235,3.904,14.141-0.001l47.008-47.009C467.032,143.952,474.261,122.484,471.32,100.614z"/>
	</g>
</g>
<g>
</g>
<g>
</g>
<g>
</g>
<g>
</g>
<g>
</g>
<g>
</g>
<g>
</g>
<g>
</g>
<g>
</g>
<g>
</g>
<g>
</g>
<g>
</g>
<g>
</g>
<g>
</g>
<g>
</g>
</svg>
